<?xml version="1.0" encoding="iso-8859-1"?>
<!-- Generator: Adobe Illustrator 16.0.0, SVG Export Plug-In . SVG Version: 6.00 Build 0)  -->
<!DOCTYPE svg PUBLIC "-//W3C//DTD SVG 1.1//EN" "http://www.w3.org/Graphics/SVG/1.1/DTD/svg11.dtd">
<svg version="1.1" id="Capa_1" xmlns="http://www.w3.org/2000/svg" xmlns:xlink="http://www.w3.org/1999/xlink" x="0px" y="0px"
	 width="547.354px" height="547.354px" viewBox="0 0 547.354 547.354" style="enable-background:new 0 0 547.354 547.354;"
	 xml:space="preserve">
<g>
	<path d="M328.584,0.176c-21.981,0-40.931,7.368-54.802,21.306c-24.509,24.634-25.033,60.636-25.014,64.548v275.324
		C186.308,347.947,139.3,289.6,139.3,219.639v-74.373c0-62.098,34.87-115.067,86.883-135.539V0
		C54.164,8.467,69.591,191.574,69.591,191.574c5.648,157.286,117.555,187.281,179.183,191.83v163.95h43.008V382.837
		c53.816-5.9,201.661-48.689,185.044-219.928C459.878-11.709,328.584,0.176,328.584,0.176z M415.567,218.948
		c0,76.376-53.061,139.515-123.786,144.879V86.042c0.073-10.053,2.959-42.861,36.803-42.861v-0.012
		c61.641-3.461,81.278,86.213,85.839,113.212c0.719,4.26,1.145,11.238,1.145,15.558V218.948z"/>
</g>
<g>
</g>
<g>
</g>
<g>
</g>
<g>
</g>
<g>
</g>
<g>
</g>
<g>
</g>
<g>
</g>
<g>
</g>
<g>
</g>
<g>
</g>
<g>
</g>
<g>
</g>
<g>
</g>
<g>
</g>
</svg>
